HIERARCHY
ROOT hips
{
  OFFSET 0 10.6860622 2.3727825e-15
  CHANNELS 6 Xposition Yposition Zposition Yrotation Xrotation Zrotation
  JOINT leftUpperLeg
  {
    OFFSET 0.6642549969 -0.9402397400000004 0
    CHANNELS 3 Yrotation Xrotation Zrotation
    JOINT leftLowerLeg
    {
      OFFSET 0 -3.997221335632195 0
      CHANNELS 3 Yrotation Xrotation Zrotation
      JOINT leftFoot
      {
        OFFSET -0.13777839790000004 -4.6145792000000005 -0.22186036399999998
        CHANNELS 3 Yrotation Xrotation Zrotation
        JOINT leftToes
        {
          OFFSET -0.03777410834999995 -0.9130806927000008 0.85230013
          CHANNELS 3 Yrotation Xrotation Zrotation
          End Site
          {
            OFFSET -0.03777410834999995 -0.9130806927000008 0.85230013
          }
        }
      }
    }
  }
  JOINT rightUpperLeg
  {
    OFFSET -0.6642778626 -0.9402397400000004 0
    CHANNELS 3 Yrotation Xrotation Zrotation
    JOINT rightLowerLeg
    {
      OFFSET 0 -3.997221452859387 0
      CHANNELS 3 Yrotation Xrotation Zrotation
      JOINT rightFoot
      {
        OFFSET 0.1377926176 -4.6145792000000005 -0.22185782299999995
        CHANNELS 3 Yrotation Xrotation Zrotation
        JOINT rightToes
        {
          OFFSET 0.037780746850000047 -0.9130806927000008 0.85230167
          CHANNELS 3 Yrotation Xrotation Zrotation
          End Site
          {
            OFFSET 0.037780746850000047 -0.9130806927000008 0.85230167
          }
        }
      }
    }
  }
  JOINT spine
  {
    OFFSET 0 0.13988381660000015 0
    CHANNELS 3 Yrotation Xrotation Zrotation
    JOINT chest
    {
      OFFSET 0 0.6191039003973773 0
      CHANNELS 3 Yrotation Xrotation Zrotation
      JOINT upperChest
      {
        OFFSET 0 0.9855186130586943 0
        CHANNELS 3 Yrotation Xrotation Zrotation
        JOINT leftShoulder
        {
          OFFSET 0.1807663869 1.5087829790000005 0
          CHANNELS 3 Yrotation Xrotation Zrotation
          JOINT leftUpperArm
          {
            OFFSET 0.5985063006419806 0 0
            CHANNELS 3 Yrotation Xrotation Zrotation
            JOINT leftLowerArm
            {
              OFFSET 2.2993332369501065 0 0
              CHANNELS 3 Yrotation Xrotation Zrotation
              JOINT leftHand
              {
                OFFSET 2.395047042602395 0 0
                CHANNELS 3 Yrotation Xrotation Zrotation
                JOINT leftIndexProximal
                {
                  OFFSET 0.5766295810000004 0.04556643899499946 0.17265095988184
                  CHANNELS 3 Yrotation Xrotation Zrotation
                  JOINT leftIndexIntermediate
                  {
                    OFFSET 0.2957229000000008 -0.019352197700001517 -0.007932640616999987
                    CHANNELS 3 Yrotation Xrotation Zrotation
                    JOINT leftIndexDistal
                    {
                      OFFSET 0.19008243099999922 -0.012484908149998475 -0.002786250786000012
                      CHANNELS 3 Yrotation Xrotation Zrotation
                      End Site
                      {
                        OFFSET 0.19008243099999922 -0.012484908149998475 -0.002786250786000012
                      }
                    }
                  }
                }
                JOINT leftMiddleProximal
                {
                  OFFSET 0.5834975091000001 0.0524350405149987 0.02204081888183999
                  CHANNELS 3 Yrotation Xrotation Zrotation
                  JOINT leftMiddleIntermediate
                  {
                    OFFSET 0.33880573540000003 -0.019871473270000717 -0.00000971183179999946
                    CHANNELS 3 Yrotation Xrotation Zrotation
                    JOINT leftMiddleDistal
                    {
                      OFFSET 0.20676022730000088 -0.012221336379999448 0.0001471936708000235
                      CHANNELS 3 Yrotation Xrotation Zrotation
                      End Site
                      {
                        OFFSET 0.20676022730000088 -0.012221336379999448 0.0001471936708000235
                      }
                    }
                  }
                }
                JOINT leftLittleProximal
                {
                  OFFSET 0.5344154683999995 -0.012880921405001189 -0.24414037221816004
                  CHANNELS 3 Yrotation Xrotation Zrotation
                  JOINT leftLittleIntermediate
                  {
                    OFFSET 0.21758961730000093 -0.011650919939999227 0.011893592810000034
                    CHANNELS 3 Yrotation Xrotation Zrotation
                    JOINT leftLittleDistal
                    {
                      OFFSET 0.1475273964999999 -0.008152365682999818 0.006001092492999946
                      CHANNELS 3 Yrotation Xrotation Zrotation
                      End Site
                      {
                        OFFSET 0.1475273964999999 -0.008152365682999818 0.006001092492999946
                      }
                    }
                  }
                }
                JOINT leftRingProximal
                {
                  OFFSET 0.5799399463000003 0.026911854694997794 -0.12150566991816003
                  CHANNELS 3 Yrotation Xrotation Zrotation
                  JOINT leftRingIntermediate
                  {
                    OFFSET 0.26167887460000006 -0.013480186499999602 0.010996293000000053
                    CHANNELS 3 Yrotation Xrotation Zrotation
                    JOINT leftRingDistal
                    {
                      OFFSET 0.17667108799999987 -0.008990287899999228 0.0055541023999999065
                      CHANNELS 3 Yrotation Xrotation Zrotation
                      End Site
                      {
                        OFFSET 0.17667108799999987 -0.008990287899999228 0.0055541023999999065
                      }
                    }
                  }
                }
                JOINT leftThumbProximal
                {
                  OFFSET 0.11018806699999972 -0.09448718900500053 0.17047963138184
                  CHANNELS 3 Yrotation Xrotation Zrotation
                  JOINT leftThumbIntermediate
                  {
                    OFFSET 0.31062601459999983 -0.08126270900000132 0.15443142000000007
                    CHANNELS 3 Yrotation Xrotation Zrotation
                    JOINT leftThumbDistal
                    {
                      OFFSET 0.21627175790000086 -0.08833193599999878 0.018771167799999988
                      CHANNELS 3 Yrotation Xrotation Zrotation
                      End Site
                      {
                        OFFSET 0.21627175790000086 -0.08833193599999878 0.018771167799999988
                      }
                    }
                  }
                }
              }
            }
          }
        }
        JOINT neck
        {
          OFFSET 0 1.5463305265074576 0
          CHANNELS 3 Yrotation Xrotation Zrotation
          JOINT head
          {
            OFFSET 0 0.8456443600000344 0
            CHANNELS 3 Yrotation Xrotation Zrotation
            JOINT leftEye
            {
              OFFSET 0.30408573140000006 0.5104519199999995 0.1276382305
              CHANNELS 3 Yrotation Xrotation Zrotation
              End Site
              {
                OFFSET 0.30408573140000006 0.5104519199999995 0.1276382305
              }
            }
            JOINT rightEye
            {
              OFFSET -0.30409491089999996 0.5104519199999995 0.1276379445
              CHANNELS 3 Yrotation Xrotation Zrotation
              End Site
              {
                OFFSET -0.30409491089999996 0.5104519199999995 0.1276379445
              }
            }
            JOINT jaw
            {
              OFFSET -3.155239131000001e-7 -0.11984121820000082 0.60178107
              CHANNELS 3 Yrotation Xrotation Zrotation
              End Site
              {
                OFFSET -3.155239131000001e-7 -0.11984121820000082 0.60178107
              }
            }
          }
        }
        JOINT rightShoulder
        {
          OFFSET -0.1807303465 1.5087829790000005 0
          CHANNELS 3 Yrotation Xrotation Zrotation
          JOINT rightUpperArm
          {
            OFFSET -0.5985063796536958 0 0
            CHANNELS 3 Yrotation Xrotation Zrotation
            JOINT rightLowerArm
            {
              OFFSET -2.2993322059002854 0 0
              CHANNELS 3 Yrotation Xrotation Zrotation
              JOINT rightHand
              {
                OFFSET -2.395045314457259 0 0
                CHANNELS 3 Yrotation Xrotation Zrotation
                JOINT rightIndexProximal
                {
                  OFFSET -0.5764487688300002 0.0441371204405987 0.17361932004999997
                  CHANNELS 3 Yrotation Xrotation Zrotation
                  JOINT rightIndexIntermediate
                  {
                    OFFSET -0.29573011380000047 -0.01934826376999843 -0.007698921482999974
                    CHANNELS 3 Yrotation Xrotation Zrotation
                    JOINT rightIndexDistal
                    {
                      OFFSET -0.19008373999999884 -0.012503266380000655 -0.0026365778999999897
                      CHANNELS 3 Yrotation Xrotation Zrotation
                      End Site
                      {
                        OFFSET -0.19008373999999884 -0.012503266380000655 -0.0026365778999999897
                      }
                    }
                  }
                }
                JOINT rightMiddleProximal
                {
                  OFFSET -0.5834852037300005 0.05211639405060153 0.02307162440000001
                  CHANNELS 3 Yrotation Xrotation Zrotation
                  JOINT rightMiddleIntermediate
                  {
                    OFFSET -0.33880114510000003 -0.019952774050000954 0.0002455003561999819
                    CHANNELS 3 Yrotation Xrotation Zrotation
                    JOINT rightMiddleDistal
                    {
                      OFFSET -0.20675694929999955 -0.012273788999999091 0.00030209124000002766
                      CHANNELS 3 Yrotation Xrotation Zrotation
                      End Site
                      {
                        OFFSET -0.20675694929999955 -0.012273788999999091 0.00030209124000002766
                      }
                    }
                  }
                }
                JOINT rightLittleProximal
                {
                  OFFSET -0.5346811737299992 -0.011214256288399227 -0.24363941305000003
                  CHANNELS 3 Yrotation Xrotation Zrotation
                  JOINT rightLittleIntermediate
                  {
                    OFFSET -0.21757715980000092 -0.011771559690000988 0.01201554387
                    CHANNELS 3 Yrotation Xrotation Zrotation
                    JOINT rightLittleDistal
                    {
                      OFFSET -0.1475201849000004 -0.00822055339600003 0.006082065407000015
                      CHANNELS 3 Yrotation Xrotation Zrotation
                      End Site
                      {
                        OFFSET -0.1475201849000004 -0.00822055339600003 0.006082065407000015
                      }
                    }
                  }
                }
                JOINT rightRingProximal
                {
                  OFFSET -0.5800810755299999 0.027657985680600072 -0.12066365025000003
                  CHANNELS 3 Yrotation Xrotation Zrotation
                  JOINT rightRingIntermediate
                  {
                    OFFSET -0.26166445029999974 -0.013623118409999302 0.011164098990000045
                    CHANNELS 3 Yrotation Xrotation Zrotation
                    JOINT rightRingDistal
                    {
                      OFFSET -0.17666387530000027 -0.009072900100000503 0.005668185599999959
                      CHANNELS 3 Yrotation Xrotation Zrotation
                      End Site
                      {
                        OFFSET -0.17666387530000027 -0.009072900100000503 0.005668185599999959
                      }
                    }
                  }
                }
                JOINT rightThumbProximal
                {
                  OFFSET -0.10997596379000074 -0.09577489355940072 0.16989765924999997
                  CHANNELS 3 Yrotation Xrotation Zrotation
                  JOINT rightThumbIntermediate
                  {
                    OFFSET -0.31036620999999986 -0.08229339117999834 0.15440884469999996
                    CHANNELS 3 Yrotation Xrotation Zrotation
                    JOINT rightThumbDistal
                    {
                      OFFSET -0.21631306399999906 -0.08825326400000111 0.018656797720000014
                      CHANNELS 3 Yrotation Xrotation Zrotation
                      End Site
                      {
                        OFFSET -0.21631306399999906 -0.08825326400000111 0.018656797720000014
                      }
                    }
                  }
                }
              }
            }
          }
        }
      }
    }
  }
}
MOTION
Frames: 9
Frame Time: 0.03333333333333333
0 11.682712981546562 0 0 0 0 0 0 -5.826343164929014 -0.3712483961610101 -3.6333298826370974 5.838118207697276 0 0 0 0 0 0 0 0 5.826343164929014 0.3712483961610101 -3.6333298826370974 -5.838118207697276 0 0 0 0 0 0 0 -4.610651315171937 0 0 3.0831277533083026 0 0 0 0 0 1.5275236235667615 0 0 0 0 0 0 0 0 0 0 0 0 0 0 0 0 0 0 0 0 0 0 0 0 0 0 0 0 0 0 0 0 0 0 0 0 0 0 0 0 0 0 0 0 0 0 0 0 0 0 0 0 0 0 0 0 1.5275236235667615 0 0 0 0 0 0 0 0 0 0 0 0 0 0 1.5275236235667615 0 0 0 0 0 0 0 0 0 0 0 0 0 0 0 0 0 0 0 0 0 0 0 0 0 0 0 0 0 0 0 0 0 0 0 0 0 0 0 0 0 0 0 0 0 0 0 0 0 0 0 0 0 0 0
0 -11.147055686473893 -8.589850895210764 0 -63.00217470139075 0 67.32648618986974 -64.73880727546857 -24.31969350265889 14.341629373848074 67.61087763673162 15.456915142975088 -0.002947413799433333 14.998732416347696 -1.0003767634766352 0 0 0 -78.11458511344475 -67.868695620383 27.523722282968095 -14.341634802948343 67.61087763673162 -15.456918383607702 0 20.996786438572162 0 0 0 0 0 -10.612680746305081 0 0 23.081294275643288 0 0 0 0 0 1.5275236235667615 0 11.870112108080555 39.536240809980406 -71.73603872262265 -81.00327312566755 0 0 0 0 -13.000400418797934 0 0 0 0 0 0 0 0 0 0 0 0 0 0 0 0 0 0 0 0 0 0 0 0 0 0 0 0 0 0 0 0 0 0 0 0 0 0 0 0 0 0 0 0 0 0 32.52667392937385 0 -0.17310598951509085 0.27451899958149795 -0.0004143933215799273 0 0 0 0 0 0 0 0 0 11.00337336516256 1.499454453314777 0.29152022639486347 33.48482996389064 -15.686260746530738 73.28899359486925 18.084586767038857 0.9957307659991714 4.999016661545018 11.774349943330206 12.345193918027293 44.27416056744489 0 0 0 0 0 0 0 0 0 0 0 0 0 0 0 0 0 0 0 0 0 0 0 0 0 0 0 0 0 0 0 0 0 0 0 0 0 0 0 0 0 0 0 0 0
0 -11.147055686473893 -8.589850895210764 0 -63.00217470139075 0 67.32648618986974 -64.73880727546857 -24.31969350265889 15.773707609059183 67.45247803005654 16.8167793910552 -0.002947413799433333 14.998732416347696 -1.0003767634766352 0 0 0 -78.11456404542277 -67.868695620383 27.52370394063959 -15.774581318584914 67.45238896780768 -16.817660347288758 0 20.996786438572162 0 0 0 0 0 -10.612680746305081 0 0 23.081290563380385 0 0 0 0 0 1.5275236235667615 0 11.8701133639707 39.53623638182087 -71.73603767135234 -81.00327312566755 0 0 0 0 -13.000400418797934 0 0 0 0 0 0 0 0 0 0 0 0 0 0 0 0 0 0 0 0 0 0 0 0 0 0 0 0 0 0 0 0 0 0 0 0 0 0 0 0 0 0 0 0 0 0 32.52667392937385 0 -0.16986472052940124 -0.7793799956517411 0.0011555571665603163 0 0 0 0 0 0 0 0 0 11.00337336516256 1.499454453314777 0.29152022639486347 33.48482996389064 -15.686260746530738 73.28899359486925 18.584301313856773 0.995598090886657 4.999098919640372 11.776566471315531 12.53969094989182 44.09292323778661 0 0 0 0 0 0 0 0 0 0 0 0 0 0 0 0 0 0 0 0 0 0 0 0 0 0 0 0 0 0 0 0 0 0 0 0 0 0 0 0 0 0 0 0 0
0 -11.147055686473893 -8.589850895210764 0 -63.00217470139075 0 67.32648618986974 -64.73880727546857 -24.31969350265889 17.18622426900207 67.28118620612965 18.15701897335487 -0.002947413799433333 14.998732416347696 -1.0003767634766352 0 0 0 -78.11457402501172 -67.868695620383 27.52371415908338 -17.187963618565202 67.28100935460876 -18.15877672344147 0 20.996786438572162 0 0 0 0 0 -10.612680746305081 0 0 23.081294275643288 0 0 0 0 0 1.5275236235667615 0 11.870120947542109 39.53623638182087 -71.73602190229893 -81.00327312566755 0 0 0 0 -13.000400418797934 0 0 0 0 0 0 0 0 0 0 0 0 0 0 0 0 0 0 0 0 0 0 0 0 0 0 0 0 0 0 0 0 0 0 0 0 0 0 0 0 0 0 0 0 0 0 32.52667392937385 0 -0.16663769384929678 -1.8376079468085926 0.0026725434525472773 0 0 0 0 0 0 0 0 0 11.003371874746279 1.499454453314777 0.29152019970564336 33.48482996389064 -15.686260746530738 73.28899359486925 19.08412383818679 0.9954634944988053 4.999176626822163 11.778149907800195 12.734201899435735 43.911540933339346 0 0 0 0 0 0 0 0 0 0 0 0 0 0 0 0 0 0 0 0 0 0 0 0 0 0 0 0 0 0 0 0 0 0 0 0 0 0 0 0 0 0 0 0 0
0 -11.147055686473893 -8.589850895210764 0 -63.00215965548944 0 67.32648618986974 -64.73880727546857 -24.31969350265889 18.57803061727207 67.09726609472317 19.476484190714235 -0.002947413617557564 14.998728880802606 -1.0003767634766352 0 0 0 -78.114560894234 -67.868695620383 27.52370804497383 -18.580600647669705 67.09698528432867 -19.479083569818375 0 20.996786438572162 0 0 0 0 0 -10.612679009041223 0 0 23.081290563380385 0 0 0 0 0 1.5275236235667615 0 11.870109030501135 39.536240809980406 -71.736039773893 -81.00327312566755 0 0 0 0 -13.000400418797934 0 0 0 0 0 0 0 0 0 0 0 0 0 0 0 0 0 0 0 0 0 0 0 0 0 0 0 0 0 0 0 0 0 0 0 0 0 0 0 0 0 0 0 0 0 0 32.52667392937385 0 -0.16342328383096263 -2.9000119810081695 0.004137104534352736 0 0 0 0 0 0 0 0 0 11.003371874746279 1.499454453314777 0.29152019970564336 33.48482996389064 -15.686260746530738 73.28899359486925 19.58404652722266 0.9953279374761493 4.999256035302995 11.779108435784506 12.92872991879296 43.73002014640492 0 0 0 0 0 0 0 0 0 0 0 0 0 0 0 0 0 0 0 0 0 0 0 0 0 0 0 0 0 0 0 0 0 0 0 0 0 0 0 0 0 0 0 0 0
0 -11.147055686473893 -8.589850895210764 0 -63.00217470139075 0 67.32648618986974 -64.73880727546857 -24.31969350265889 19.948126649876553 66.90104506594002 20.774177667194685 -0.002947413799433333 14.998732416347696 -1.0003767634766352 0 0 0 -78.11462689880622 -67.868695620383 27.523758713268652 -19.951487828000904 66.90061853140281 -20.777578213013054 0 20.996788267563534 0 0 0 0 0 -10.612680746305081 0 0 23.081296131774778 0 0 0 0 0 1.5275236235667615 0 11.870112108080555 39.536240809980406 -71.73603872262265 -81.00327312566755 0 0 0 0 -13.000400418797934 0 0 0 0 0 0 0 0 0 0 0 0 0 0 0 0 0 0 0 0 0 0 0 0 0 0 0 0 0 0 0 0 0 0 0 0 0 0 0 0 0 0 0 0 0 0 32.52667392937385 0 -0.16022076840117577 -3.966432881025884 0.005547803607176326 0 0 0 0 0 0 0 0 0 11.003374203527486 1.499454453314777 0.2915202530840836 33.48482996389064 -15.686260746530738 73.28899359486925 20.084047507869844 0.9951933410993242 4.999335316097638 11.77942590520336 13.123266772553569 43.54833743918241 0 0 0 0 0 0 0 0 0 0 0 0 0 0 0 0 0 0 0 0 0 0 0 0 0 0 0 0 0 0 0 0 0 0 0 0 0 0 0 0 0 0 0 0 0
0 -11.147055686473893 -8.589850895210764 0 -63.00217470139075 0 67.32648618986974 -64.73880727546857 -24.31969350265889 21.295612938784785 66.69282348550954 22.049195709193654 -0.002947413799433333 14.998732416347696 -1.0003767634766352 0 0 0 -78.114607114969 -67.868695620383 27.523738445950908 -21.29974084253647 66.69224519014078 -22.053376788109038 0 20.996788267563534 0 0 0 0 0 -10.612680746305081 0 0 23.081294275643288 0 0 0 0 0 1.5275236235667615 0 11.870112108080555 39.536240809980406 -71.73603872262265 -81.00327312566755 0 0 0 0 -13.000400418797934 0 0 0 0 0 0 0 0 0 0 0 0 0 0 0 0 0 0 0 0 0 0 0 0 0 0 0 0 0 0 0 0 0 0 0 0 0 0 0 0 0 0 0 0 0 0 32.52667392937385 0 -0.157029341255851 -5.036707076901725 0.00690623419495986 0 0 0 0 0 0 0 0 0 11.003374203527486 1.499454453314777 0.2915202530840836 33.48482996389064 -15.686260746530738 73.28899359486925 20.584103257912638 0.99505671670975 4.999411747275333 11.779119136340098 13.317811217402356 43.36652422588492 0 0 0 0 0 0 0 0 0 0 0 0 0 0 0 0 0 0 0 0 0 0 0 0 0 0 0 0 0 0 0 0 0 0 0 0 0 0 0 0 0 0 0 0 0
0 -11.147055686473893 -8.589850895210764 0 -63.00217470139075 0 67.32648618986974 -64.73880727546857 -24.31969350265889 22.61971292831961 66.47292553543949 23.30076679584981 -0.002947413799433333 14.998732416347696 -1.0003767634766352 0 0 0 -78.11458511344475 -67.868695620383 27.523722282968095 -22.624574129084326 66.47218124205803 -23.305692345129444 0 20.996786438572162 0 0 0 0 0 -10.612680746305081 0 0 23.081294275643288 0 0 0 0 0 1.5275236235667615 0 11.870116269027918 39.53624523814022 -71.73603628358813 -81.00328071509664 0 0 0 0 -13.000400418797934 0 0 0 0 0 0 0 0 0 0 0 0 0 0 0 0 0 0 0 0 0 0 0 0 0 0 0 0 0 0 0 0 0 0 0 0 0 0 0 0 0 0 0 0 0 0 32.52667392937385 0 -0.15384612810249543 -6.11066898333628 0.008211811051233578 0 0 0 0 0 0 0 0 0 11.00337336516256 1.499454453314777 0.29152022639486347 33.48482996389064 -15.686260746530738 73.28899359486925 21.084193076452742 0.9949191316856554 4.999485626483264 11.778169288630773 13.512355858274534 43.184547108045855 0 0 0 0 0 0 0 0 0 0 0 0 0 0 0 0 0 0 0 0 0 0 0 0 0 0 0 0 0 0 0 0 0 0 0 0 0 0 0 0 0 0 0 0 0
0 -11.147055686473893 -8.589850895210764 0 -63.00217470139075 0 67.32648618986974 -64.73880727546857 -24.31969350265889 23.919786357817873 66.24167116901609 24.52824559230146 -0.002947413799433333 14.998732416347696 -1.0003767634766352 0 0 0 -78.11458511344475 -67.868695620383 27.523722282968095 -23.92536855115467 66.2407641773916 -24.533904129334417 0 20.996786438572162 0 0 0 0 0 -10.612680746305081 0 0 23.081294275643288 0 0 0 0 0 1.5275236235667615 0 11.870112108080555 39.536240809980406 -71.73603872262265 -81.00327312566755 0 0 0 0 -13.000400418797934 0 0 0 0 0 0 0 0 0 0 0 0 0 0 0 0 0 0 0 0 0 0 0 0 0 0 0 0 0 0 0 0 0 0 0 0 0 0 0 0 0 0 0 0 0 0 32.52667392937385 0 -0.15067017280824813 -7.188141709936505 0.009464053440656475 0 0 0 0 0 0 0 0 0 11.00337336516256 1.499454453314777 0.29152022639486347 33.48482996389064 -15.686260746530738 73.28899359486925 21.58430590889006 0.9947815466672981 4.999560356336923 11.776591970706356 13.70690382011586 43.00242236786407 0 0 0 0 0 0 0 0 0 0 0 0 0 0 0 0 0 0 0 0 0 0 0 0 0 0 0 0 0 0 0 0 0 0 0 0 0 0 0 0 0 0 0 0 0
